<?xml version="1.0" encoding="UTF-8" standalone="no"?>
<!DOCTYPE svg PUBLIC "-//W3C//DTD SVG 1.1//EN"
 "http://www.w3.org/Graphics/SVG/1.1/DTD/svg11.dtd">
<!-- Generated by graphviz version 2.38.0 (20140413.2041)
 -->
<!-- Title: %3 Pages: 1 -->
<svg width="164pt" height="167pt"
 viewBox="0.00 0.00 163.90 167.40" xmlns="http://www.w3.org/2000/svg" xmlns:xlink="http://www.w3.org/1999/xlink">
<g id="graph0" class="graph" transform="scale(1 1) rotate(0) translate(7.2 160.2)">
<title>%3</title>
<polygon fill="white" stroke="none" points="-7.2,7.2 -7.2,-160.2 156.7,-160.2 156.7,7.2 -7.2,7.2"/>
<!-- Netlist -->
<g id="node1" class="node"><title>Netlist</title>
<polygon fill="none" stroke="black" points="61.5,-153 7.5,-153 7.5,-117 61.5,-117 61.5,-153"/>
<text text-anchor="middle" x="34.5" y="-131.3" font-family="Times,serif" font-size="14.00">Netlist</text>
</g>
<!-- Floorplan -->
<g id="node2" class="node"><title>Floorplan</title>
<polygon fill="none" stroke="black" points="69,-36 0,-36 0,-0 69,-0 69,-36"/>
<text text-anchor="middle" x="34.5" y="-14.3" font-family="Times,serif" font-size="14.00">Floorplan</text>
</g>
<!-- Netlist&#45;&gt;Floorplan -->
<g id="edge1" class="edge"><title>Netlist&#45;&gt;Floorplan</title>
<path fill="none" stroke="black" d="M34.5,-116.534C34.5,-97.9357 34.5,-68.2442 34.5,-46.5014"/>
<polygon fill="black" stroke="black" points="38.0001,-46.2536 34.5,-36.2536 31.0001,-46.2536 38.0001,-46.2536"/>
<text text-anchor="start" x="34.5" y="-87.8" font-family="Times,serif" font-size="14.00"> Layout optimization</text>
<text text-anchor="start" x="34.5" y="-72.8" font-family="Times,serif" font-size="14.00"> via</text>
<text text-anchor="start" x="34.5" y="-57.8" font-family="Times,serif" font-size="14.00"> simulated annealing</text>
</g>
</g>
</svg>
