<?xml version="1.0" encoding="UTF-8" standalone="no"?>
<!DOCTYPE svg PUBLIC "-//W3C//DTD SVG 1.1//EN"
 "http://www.w3.org/Graphics/SVG/1.1/DTD/svg11.dtd">
<!-- Generated by graphviz version 2.38.0 (20140413.2041)
 -->
<!-- Title: %3 Pages: 1 -->
<svg width="215pt" height="311pt"
 viewBox="0.00 0.00 215.40 311.40" xmlns="http://www.w3.org/2000/svg" xmlns:xlink="http://www.w3.org/1999/xlink">
<g id="graph0" class="graph" transform="scale(1 1) rotate(0) translate(7.2 304.2)">
<title>%3</title>
<polygon fill="white" stroke="none" points="-7.2,7.2 -7.2,-304.2 208.2,-304.2 208.2,7.2 -7.2,7.2"/>
<!-- Floorplan -->
<g id="node1" class="node"><title>Floorplan</title>
<polygon fill="none" stroke="black" points="135,-297 66,-297 66,-261 135,-261 135,-297"/>
<text text-anchor="middle" x="100.5" y="-275.3" font-family="Times,serif" font-size="14.00">Floorplan</text>
</g>
<!-- Bitstream programming language -->
<g id="node2" class="node"><title>Bitstream programming language</title>
<polygon fill="none" stroke="black" points="201,-210 0,-210 0,-174 201,-174 201,-210"/>
<text text-anchor="middle" x="100.5" y="-188.3" font-family="Times,serif" font-size="14.00">Bitstream programming language</text>
</g>
<!-- Floorplan&#45;&gt;Bitstream programming language -->
<g id="edge1" class="edge"><title>Floorplan&#45;&gt;Bitstream programming language</title>
<path fill="none" stroke="black" d="M100.5,-260.799C100.5,-249.163 100.5,-233.548 100.5,-220.237"/>
<polygon fill="black" stroke="black" points="104,-220.175 100.5,-210.175 97.0001,-220.175 104,-220.175"/>
<text text-anchor="middle" x="120.5" y="-231.8" font-family="Times,serif" font-size="14.00"> fp2bpl</text>
</g>
<!-- Bitstream -->
<g id="node3" class="node"><title>Bitstream</title>
<polygon fill="none" stroke="black" points="135.5,-123 65.5,-123 65.5,-87 135.5,-87 135.5,-123"/>
<text text-anchor="middle" x="100.5" y="-101.3" font-family="Times,serif" font-size="14.00">Bitstream</text>
</g>
<!-- Bitstream programming language&#45;&gt;Bitstream -->
<g id="edge2" class="edge"><title>Bitstream programming language&#45;&gt;Bitstream</title>
<path fill="none" stroke="black" d="M100.5,-173.799C100.5,-162.163 100.5,-146.548 100.5,-133.237"/>
<polygon fill="black" stroke="black" points="104,-133.175 100.5,-123.175 97.0001,-133.175 104,-133.175"/>
<text text-anchor="middle" x="123.5" y="-144.8" font-family="Times,serif" font-size="14.00"> bpl2bin</text>
</g>
<!-- Xilinx bitfile -->
<g id="node4" class="node"><title>Xilinx bitfile</title>
<polygon fill="none" stroke="black" points="144,-36 57,-36 57,-0 144,-0 144,-36"/>
<text text-anchor="middle" x="100.5" y="-14.3" font-family="Times,serif" font-size="14.00">Xilinx bitfile</text>
</g>
<!-- Bitstream&#45;&gt;Xilinx bitfile -->
<g id="edge3" class="edge"><title>Bitstream&#45;&gt;Xilinx bitfile</title>
<path fill="none" stroke="black" d="M100.5,-86.799C100.5,-75.1626 100.5,-59.5479 100.5,-46.2368"/>
<polygon fill="black" stroke="black" points="104,-46.1754 100.5,-36.1754 97.0001,-46.1755 104,-46.1754"/>
<text text-anchor="middle" x="150.5" y="-57.8" font-family="Times,serif" font-size="14.00"> bin2bit (optional)</text>
</g>
</g>
</svg>
